<mxfile host="app.diagrams.net" modified="2021-01-22T03:10:31.502Z" agent="5.0 (Windows NT 10.0; Win64; x64) AppleWebKit/537.36 (KHTML, like Gecko) Chrome/87.0.4259.3 Safari/537.36" etag="ukRem4wRd7RwbLDAf5-q" version="14.2.4" type="github">
  <diagram id="prtHgNgQTEPvFCAcTncT" name="Page-1">
    <mxGraphModel dx="1865" dy="556" grid="1" gridSize="10" guides="1" tooltips="1" connect="1" arrows="1" fold="1" page="1" pageScale="1" pageWidth="827" pageHeight="1169" math="0" shadow="0">
      <root>
        <mxCell id="0" />
        <mxCell id="1" parent="0" />
        <mxCell id="qVCQUGzkaM3uM8x8m-_6-26" style="edgeStyle=orthogonalEdgeStyle;rounded=0;orthogonalLoop=1;jettySize=auto;html=1;exitX=1;exitY=0.3333333333333333;exitDx=0;exitDy=0;exitPerimeter=0;entryX=0.5;entryY=1;entryDx=0;entryDy=0;" edge="1" parent="1" source="qVCQUGzkaM3uM8x8m-_6-1" target="qVCQUGzkaM3uM8x8m-_6-19">
          <mxGeometry relative="1" as="geometry">
            <Array as="points">
              <mxPoint x="80" y="237" />
              <mxPoint x="80" y="410" />
              <mxPoint x="510" y="410" />
            </Array>
          </mxGeometry>
        </mxCell>
        <mxCell id="qVCQUGzkaM3uM8x8m-_6-28" value="进行安全审计" style="edgeLabel;html=1;align=center;verticalAlign=middle;resizable=0;points=[];" vertex="1" connectable="0" parent="qVCQUGzkaM3uM8x8m-_6-26">
          <mxGeometry x="0.1177" y="1" relative="1" as="geometry">
            <mxPoint as="offset" />
          </mxGeometry>
        </mxCell>
        <mxCell id="qVCQUGzkaM3uM8x8m-_6-1" value="&lt;b&gt;安全审计员&lt;/b&gt;" style="shape=umlActor;verticalLabelPosition=bottom;verticalAlign=top;html=1;outlineConnect=0;" vertex="1" parent="1">
          <mxGeometry x="20" y="210" width="50" height="80" as="geometry" />
        </mxCell>
        <mxCell id="qVCQUGzkaM3uM8x8m-_6-4" value="&lt;b&gt;持续集成&lt;/b&gt;" style="rounded=1;whiteSpace=wrap;html=1;" vertex="1" parent="1">
          <mxGeometry x="140" y="120" width="120" height="60" as="geometry" />
        </mxCell>
        <mxCell id="qVCQUGzkaM3uM8x8m-_6-5" value="&lt;b&gt;安全审计中心&lt;/b&gt;" style="rounded=1;whiteSpace=wrap;html=1;" vertex="1" parent="1">
          <mxGeometry x="140" y="300" width="120" height="60" as="geometry" />
        </mxCell>
        <mxCell id="qVCQUGzkaM3uM8x8m-_6-20" style="edgeStyle=orthogonalEdgeStyle;rounded=0;orthogonalLoop=1;jettySize=auto;html=1;exitX=1;exitY=0.5;exitDx=0;exitDy=0;entryX=0;entryY=0.5;entryDx=0;entryDy=0;" edge="1" parent="1" source="qVCQUGzkaM3uM8x8m-_6-7" target="qVCQUGzkaM3uM8x8m-_6-8">
          <mxGeometry relative="1" as="geometry" />
        </mxCell>
        <mxCell id="qVCQUGzkaM3uM8x8m-_6-7" value="配置扫描规则" style="shape=process;whiteSpace=wrap;html=1;backgroundOutline=1;" vertex="1" parent="1">
          <mxGeometry x="290" y="210" width="120" height="60" as="geometry" />
        </mxCell>
        <mxCell id="qVCQUGzkaM3uM8x8m-_6-21" style="edgeStyle=orthogonalEdgeStyle;rounded=0;orthogonalLoop=1;jettySize=auto;html=1;exitX=0.5;exitY=1;exitDx=0;exitDy=0;entryX=0.5;entryY=0;entryDx=0;entryDy=0;" edge="1" parent="1" source="qVCQUGzkaM3uM8x8m-_6-8" target="qVCQUGzkaM3uM8x8m-_6-19">
          <mxGeometry relative="1" as="geometry" />
        </mxCell>
        <mxCell id="qVCQUGzkaM3uM8x8m-_6-8" value="代码安全扫描" style="shape=process;whiteSpace=wrap;html=1;backgroundOutline=1;" vertex="1" parent="1">
          <mxGeometry x="450" y="210" width="120" height="60" as="geometry" />
        </mxCell>
        <mxCell id="qVCQUGzkaM3uM8x8m-_6-22" style="edgeStyle=orthogonalEdgeStyle;rounded=0;orthogonalLoop=1;jettySize=auto;html=1;exitX=0;exitY=0.3333333333333333;exitDx=0;exitDy=0;exitPerimeter=0;entryX=1;entryY=0.5;entryDx=0;entryDy=0;" edge="1" parent="1" source="qVCQUGzkaM3uM8x8m-_6-9" target="qVCQUGzkaM3uM8x8m-_6-19">
          <mxGeometry relative="1" as="geometry" />
        </mxCell>
        <mxCell id="qVCQUGzkaM3uM8x8m-_6-23" value="查看审计结果并进行修改" style="edgeLabel;html=1;align=center;verticalAlign=middle;resizable=0;points=[];" vertex="1" connectable="0" parent="qVCQUGzkaM3uM8x8m-_6-22">
          <mxGeometry x="-0.2651" y="-3" relative="1" as="geometry">
            <mxPoint x="-12" y="23.3" as="offset" />
          </mxGeometry>
        </mxCell>
        <mxCell id="qVCQUGzkaM3uM8x8m-_6-24" style="edgeStyle=orthogonalEdgeStyle;rounded=0;orthogonalLoop=1;jettySize=auto;html=1;exitX=1;exitY=0.3333333333333333;exitDx=0;exitDy=0;exitPerimeter=0;entryX=0;entryY=0.3333333333333333;entryDx=0;entryDy=0;entryPerimeter=0;" edge="1" parent="1" source="qVCQUGzkaM3uM8x8m-_6-9" target="qVCQUGzkaM3uM8x8m-_6-1">
          <mxGeometry relative="1" as="geometry">
            <Array as="points">
              <mxPoint x="730" y="237" />
              <mxPoint x="730" y="80" />
              <mxPoint y="80" />
              <mxPoint y="237" />
            </Array>
          </mxGeometry>
        </mxCell>
        <mxCell id="qVCQUGzkaM3uM8x8m-_6-25" value="修改完成之后通知安全审计人员再次进行安全审计" style="edgeLabel;html=1;align=center;verticalAlign=middle;resizable=0;points=[];" vertex="1" connectable="0" parent="qVCQUGzkaM3uM8x8m-_6-24">
          <mxGeometry x="-0.2016" y="1" relative="1" as="geometry">
            <mxPoint x="-1" as="offset" />
          </mxGeometry>
        </mxCell>
        <mxCell id="qVCQUGzkaM3uM8x8m-_6-9" value="&lt;b&gt;研发人员&lt;/b&gt;" style="shape=umlActor;verticalLabelPosition=bottom;verticalAlign=top;html=1;outlineConnect=0;" vertex="1" parent="1">
          <mxGeometry x="680" y="210" width="50" height="80" as="geometry" />
        </mxCell>
        <mxCell id="qVCQUGzkaM3uM8x8m-_6-10" value="" style="endArrow=classic;html=1;entryX=0;entryY=0.5;entryDx=0;entryDy=0;exitX=1;exitY=0.3333333333333333;exitDx=0;exitDy=0;exitPerimeter=0;" edge="1" parent="1" source="qVCQUGzkaM3uM8x8m-_6-1" target="qVCQUGzkaM3uM8x8m-_6-4">
          <mxGeometry width="50" height="50" relative="1" as="geometry">
            <mxPoint x="150" y="270" as="sourcePoint" />
            <mxPoint x="200" y="220" as="targetPoint" />
            <Array as="points">
              <mxPoint x="90" y="237" />
              <mxPoint x="90" y="150" />
            </Array>
          </mxGeometry>
        </mxCell>
        <mxCell id="qVCQUGzkaM3uM8x8m-_6-15" value="" style="endArrow=classic;html=1;exitX=1;exitY=0.3333333333333333;exitDx=0;exitDy=0;exitPerimeter=0;entryX=0;entryY=0.5;entryDx=0;entryDy=0;" edge="1" parent="1" source="qVCQUGzkaM3uM8x8m-_6-1" target="qVCQUGzkaM3uM8x8m-_6-5">
          <mxGeometry width="50" height="50" relative="1" as="geometry">
            <mxPoint x="110" y="370" as="sourcePoint" />
            <mxPoint x="160" y="320" as="targetPoint" />
            <Array as="points">
              <mxPoint x="90" y="237" />
              <mxPoint x="90" y="330" />
            </Array>
          </mxGeometry>
        </mxCell>
        <mxCell id="qVCQUGzkaM3uM8x8m-_6-16" value="" style="endArrow=classic;html=1;exitX=1;exitY=0.5;exitDx=0;exitDy=0;entryX=0.5;entryY=0;entryDx=0;entryDy=0;" edge="1" parent="1" source="qVCQUGzkaM3uM8x8m-_6-4" target="qVCQUGzkaM3uM8x8m-_6-7">
          <mxGeometry width="50" height="50" relative="1" as="geometry">
            <mxPoint x="380" y="190" as="sourcePoint" />
            <mxPoint x="430" y="140" as="targetPoint" />
            <Array as="points">
              <mxPoint x="350" y="150" />
            </Array>
          </mxGeometry>
        </mxCell>
        <mxCell id="qVCQUGzkaM3uM8x8m-_6-17" value="" style="endArrow=classic;html=1;exitX=1;exitY=0.5;exitDx=0;exitDy=0;entryX=0.5;entryY=1;entryDx=0;entryDy=0;" edge="1" parent="1" source="qVCQUGzkaM3uM8x8m-_6-5" target="qVCQUGzkaM3uM8x8m-_6-7">
          <mxGeometry width="50" height="50" relative="1" as="geometry">
            <mxPoint x="350" y="370" as="sourcePoint" />
            <mxPoint x="400" y="320" as="targetPoint" />
            <Array as="points">
              <mxPoint x="350" y="330" />
            </Array>
          </mxGeometry>
        </mxCell>
        <mxCell id="qVCQUGzkaM3uM8x8m-_6-19" value="审计结果" style="rounded=1;whiteSpace=wrap;html=1;" vertex="1" parent="1">
          <mxGeometry x="450" y="320" width="120" height="60" as="geometry" />
        </mxCell>
      </root>
    </mxGraphModel>
  </diagram>
</mxfile>
